<svg width="127" height="48" viewBox="0 0 127 48" fill="none" xmlns="http://www.w3.org/2000/svg">
<path d="M67.2744 17.3504L74.3162 10.7429C74.6185 10.4612 74.7796 10.1114 74.7796 9.73149C74.7796 8.98028 74.0525 8.2954 73.2548 8.2954C72.8585 8.2954 72.4907 8.4453 72.1857 8.72959L61.0183 19.4602V9.73149C61.0183 8.95357 60.3205 8.2954 59.4935 8.2954C58.6673 8.2954 57.9687 8.95357 57.9687 9.73149V27.0318C57.9687 27.8114 58.6673 28.4687 59.4935 28.4687C60.3205 28.4687 61.0183 27.8114 61.0183 27.0318V23.2318L65.1 19.3861L72.5622 27.9312C72.856 28.2732 73.285 28.4687 73.7364 28.4687C74.5634 28.4687 75.2896 27.7856 75.2896 27.0068C75.2896 26.5459 75.082 26.2504 74.8796 26.0238L67.2744 17.3504Z" fill="#53595A"/>
<path d="M82.0586 8.29558C81.2324 8.29558 80.5338 8.95375 80.5338 9.73167V27.032C80.5338 27.8107 81.2324 28.4689 82.0586 28.4689C82.8848 28.4689 83.5834 27.8107 83.5834 27.032V9.73167C83.5834 8.95375 82.8848 8.29558 82.0586 8.29558Z" fill="#53595A"/>
<path d="M116.858 8.29565C116.553 8.29565 115.801 8.39731 115.408 9.3458L110.118 23.2992L105.195 9.3122C104.942 8.66695 104.393 8.29565 103.692 8.29565C103.025 8.29565 102.495 8.67212 102.235 9.33546L97.3192 23.2992L92.0625 9.43712C91.8152 8.74448 91.2105 8.29565 90.5239 8.29565C89.6968 8.29565 88.9706 8.97967 88.9706 9.75845C88.9706 9.95745 89.0145 10.147 89.1076 10.3692L95.7307 27.4748C96.0055 28.1942 96.5456 28.5741 97.2917 28.5741C97.986 28.5741 98.5787 28.1347 98.801 27.4619L103.663 14.0159L108.518 27.4438C108.752 28.152 109.34 28.5741 110.091 28.5741C110.484 28.5741 111.202 28.4319 111.595 27.4774L118.213 10.3804C118.289 10.2038 118.383 9.98416 118.383 9.73174C118.383 8.98053 117.656 8.29565 116.858 8.29565Z" fill="#53595A"/>
<path d="M125.264 8.29558C124.437 8.29558 123.738 8.95375 123.738 9.73167V27.032C123.738 27.8107 124.437 28.4689 125.264 28.4689C126.09 28.4689 126.789 27.8107 126.789 27.032V9.73167C126.789 8.95375 126.09 8.29558 125.264 8.29558Z" fill="#53595A"/>
<path d="M58.8353 33.7031L62.0599 38.6695H62.0771V33.7031H62.849V39.8265H61.9573L58.7587 34.9117H58.7406V39.8265H57.9687V33.7031H58.8353Z" fill="#9CB13A"/>
<path d="M69.8564 33.7031V34.3888H66.4432V36.3358H69.6256V37.0224H66.4432V39.1407H69.8823V39.8265H65.6283V33.7031H69.8564Z" fill="#9CB13A"/>
<path d="M77.0094 39.8267L75.6112 34.6802H75.594L74.1794 39.8267H73.33L71.7604 33.7032H72.5917L73.7935 38.7972H73.8099L75.1831 33.7032H76.0652L77.4203 38.7972H77.4384L78.6824 33.7032H79.4965L77.8588 39.8267H77.0094Z" fill="#9CB13A"/>
<path d="M89.7975 33.7031V34.3888H86.3843V36.3358H89.5666V37.0224H86.3843V39.1407H89.8234V39.8265H85.5694V33.7031H89.7975Z" fill="#9CB13A"/>
<path d="M93.1255 33.7031L96.35 38.6695H96.3672V33.7031H97.1391V39.8265H96.2475L93.0488 34.9117H93.0307V39.8265H92.2588V33.7031H93.1255Z" fill="#9CB13A"/>
<path d="M104.146 33.7031V34.3888H100.733V36.3358H103.915V37.0224H100.733V39.1407H104.172V39.8265H99.9181V33.7031H104.146Z" fill="#9CB13A"/>
<path d="M109.669 36.4813C109.841 36.4529 109.991 36.3978 110.12 36.3151C110.248 36.2315 110.351 36.1204 110.428 35.98C110.506 35.8395 110.545 35.6578 110.545 35.4355C110.545 35.1262 110.458 34.8747 110.287 34.6808C110.116 34.4861 109.837 34.3888 109.455 34.3888H107.431V36.5253H109.129C109.318 36.5253 109.498 36.5106 109.669 36.4813ZM109.498 33.7031C110.081 33.7031 110.537 33.8452 110.866 34.1321C111.194 34.4172 111.359 34.8092 111.359 35.3071C111.359 35.6784 111.275 36.0041 111.105 36.2849C110.937 36.564 110.667 36.7562 110.296 36.8587V36.8759C110.472 36.9104 110.618 36.9681 110.729 37.0473C110.84 37.1283 110.929 37.2231 110.994 37.3351C111.061 37.4462 111.109 37.5711 111.14 37.7081C111.172 37.8459 111.196 37.9881 111.213 38.1371C111.224 38.2853 111.233 38.4369 111.239 38.5911C111.245 38.7462 111.259 38.8978 111.282 39.046C111.304 39.195 111.338 39.3363 111.38 39.4707C111.423 39.6059 111.488 39.724 111.573 39.8265H110.664C110.608 39.7636 110.569 39.6783 110.549 39.5698C110.529 39.4603 110.515 39.3389 110.51 39.2053C110.504 39.0701 110.499 38.9262 110.493 38.7712C110.487 38.617 110.47 38.4653 110.441 38.3172C110.418 38.1681 110.39 38.0268 110.355 37.8924C110.321 37.7589 110.266 37.6418 110.193 37.541C110.118 37.441 110.021 37.3609 109.901 37.3006C109.78 37.2412 109.621 37.211 109.42 37.211H107.431V39.8265H106.616V33.7031H109.498Z" fill="#9CB13A"/>
<path d="M117.638 39.7538C117.284 39.8934 116.927 39.9641 116.566 39.9641C116.109 39.9641 115.7 39.8796 115.34 39.7108C114.98 39.5419 114.673 39.3154 114.422 39.0293C114.17 38.7425 113.979 38.4142 113.848 38.0429C113.716 37.6708 113.649 37.2857 113.649 36.8851C113.649 36.4389 113.712 36.0142 113.834 35.611C113.957 35.2087 114.141 34.8546 114.383 34.5514C114.626 34.249 114.93 34.0069 115.292 33.8269C115.656 33.6468 116.081 33.5572 116.566 33.5572C116.898 33.5572 117.211 33.596 117.505 33.6726C117.8 33.7502 118.063 33.8717 118.294 34.0371C118.526 34.2033 118.72 34.4135 118.878 34.6677C119.035 34.9218 119.141 35.2293 119.199 35.5894H118.384C118.345 35.356 118.27 35.1535 118.162 34.9855C118.053 34.8167 117.918 34.678 117.758 34.5695C117.598 34.46 117.416 34.3791 117.213 34.3248C117.011 34.2705 116.795 34.243 116.566 34.243C116.194 34.243 115.876 34.3179 115.609 34.4661C115.344 34.6151 115.126 34.8107 114.958 35.0536C114.788 35.2974 114.664 35.5739 114.584 35.8858C114.505 36.1977 114.464 36.5155 114.464 36.8412C114.464 37.1625 114.511 37.4701 114.602 37.7638C114.694 38.0585 114.828 38.3195 115.005 38.5443C115.182 38.7709 115.401 38.9509 115.661 39.0845C115.921 39.2197 116.223 39.2861 116.566 39.2861C116.886 39.2861 117.17 39.2344 117.415 39.1327C117.661 39.0293 117.868 38.8881 118.037 38.708C118.205 38.528 118.333 38.316 118.419 38.0731C118.504 37.8302 118.541 37.5683 118.53 37.2883H116.574V36.6017H119.259V39.8271H118.744L118.53 39.0638C118.289 39.3834 117.992 39.6143 117.638 39.7538Z" fill="#9CB13A"/>
<path d="M124.448 39.8267H123.633V37.3223L121.264 33.7032H122.235L124.069 36.6185L125.862 33.7032H126.788L124.448 37.3223V39.8267Z" fill="#9CB13A"/>
<path d="M23.9077 47.9998C10.6742 47.949 -0.0504496 37.1414 0.000372216 23.9079C0.0511941 10.6744 10.8588 -0.050642 24.0923 0.000179876C37.3258 0.0513988 48.0504 10.859 47.9996 24.0925C47.9488 37.3256 37.1412 48.0506 23.9077 47.9998Z" fill="white"/>
<path d="M47.9998 24.199C48.0506 10.9655 37.3256 0.157903 24.0925 0.107082C10.859 0.0562598 0.0513955 10.7809 0.000176575 24.0144C-0.0272196 31.2097 3.13525 37.6831 8.15033 42.105L8.18011 34.3674C8.10904 33.4815 8.55294 32.5818 9.54714 31.9092L12.3511 30.0122C11.4426 28.2235 10.9304 26.2005 10.9388 24.0565C10.9666 16.843 16.8369 11.0179 24.0504 11.0457C31.2639 11.0731 37.089 16.9434 37.0612 24.1569C37.0533 26.2764 36.5375 28.2743 35.6346 30.0407L38.5128 32.0204C39.5022 32.701 39.939 33.6042 39.8612 34.4896L39.8318 42.1228C44.8115 37.7418 47.9724 31.3375 47.9998 24.199Z" fill="#CFDD3B"/>
<path d="M27.3993 24.3765L35.6346 30.0407C36.5375 28.2743 37.0533 26.2764 37.0612 24.1569C37.089 16.9434 31.2639 11.0731 24.0504 11.0457C16.8369 11.0179 10.9666 16.843 10.9388 24.0565C10.9304 26.2005 11.4426 28.2235 12.3511 30.0122L20.719 24.3507C22.5685 23.0996 25.5594 23.1111 27.3993 24.3765Z" fill="#9CB13A"/>
<path d="M22.9878 37.805H20.4241C20.1493 37.805 19.9242 37.5799 19.9242 37.3051V34.7414C19.9242 34.4662 20.1493 34.2415 20.4241 34.2415H22.9878C23.263 34.2415 23.4877 34.4662 23.4877 34.7414V37.3051C23.4877 37.5799 23.263 37.805 22.9878 37.805Z" fill="#9CB13A"/>
<path d="M27.5759 37.805H25.0122C24.7375 37.805 24.5123 37.5799 24.5123 37.3051V34.7414C24.5123 34.4662 24.7375 34.2415 25.0122 34.2415H27.5759C27.8511 34.2415 28.0758 34.4662 28.0758 34.7414V37.3051C28.0758 37.5799 27.8511 37.805 27.5759 37.805Z" fill="#9CB13A"/>
<path d="M22.9878 42.2892H20.4241C20.1493 42.2892 19.9242 42.0641 19.9242 41.7893V39.2256C19.9242 38.9504 20.1493 38.7257 20.4241 38.7257H22.9878C23.263 38.7257 23.4877 38.9504 23.4877 39.2256V41.7893C23.4877 42.0641 23.263 42.2892 22.9878 42.2892Z" fill="#9CB13A"/>
<path d="M27.5759 42.2892H25.0122C24.7375 42.2892 24.5123 42.0641 24.5123 41.7893V39.2256C24.5123 38.9504 24.7375 38.7257 25.0122 38.7257H27.5759C27.8511 38.7257 28.0758 38.9504 28.0758 39.2256V41.7893C28.0758 42.0641 27.8511 42.2892 27.5759 42.2892Z" fill="#9CB13A"/>
</svg>
